<?xml version="1.0" standalone="no"?>
<!DOCTYPE svg PUBLIC "-//W3C//DTD SVG 1.1//EN" "http://www.w3.org/Graphics/SVG/1.1/DTD/svg11.dtd" >
<svg xmlns="http://www.w3.org/2000/svg">
<metadata>
Created by FontForge 20120731 at Thu Oct 13 10:41:34 2016
 By admin
</metadata>
<defs>
<font id="iconfont" horiz-adv-x="1024" >
  <font-face 
    font-family="iconfont"
    font-weight="500"
    font-stretch="normal"
    units-per-em="1024"
    panose-1="2 0 6 3 0 0 0 0 0 0"
    ascent="896"
    descent="-128"
    x-height="792"
    bbox="0 -128 1464 896"
    underline-thickness="50"
    underline-position="-100"
    unicode-range="U+0078-E61B"
  />
<missing-glyph horiz-adv-x="374" 
d="M34 0v682h272v-682h-272zM68 34h204v614h-204v-614z" />
    <glyph glyph-name=".notdef" horiz-adv-x="374" 
d="M34 0v682h272v-682h-272zM68 34h204v614h-204v-614z" />
    <glyph glyph-name=".null" horiz-adv-x="0" 
 />
    <glyph glyph-name="nonmarkingreturn" horiz-adv-x="341" 
 />
    <glyph glyph-name="x" unicode="x" horiz-adv-x="1001" 
d="M281 543q-27 -1 -53 -1h-83q-18 0 -36.5 -6t-32.5 -18.5t-23 -32t-9 -45.5v-76h912v41q0 16 -0.5 30t-0.5 18q0 13 -5 29t-17 29.5t-31.5 22.5t-49.5 9h-133v-97h-438v97zM955 310v-52q0 -23 0.5 -52t0.5 -58t-10.5 -47.5t-26 -30t-33 -16t-31.5 -4.5q-14 -1 -29.5 -0.5
t-29.5 0.5h-32l-45 128h-439l-44 -128h-29h-34q-20 0 -45 1q-25 0 -41 9.5t-25.5 23t-13.5 29.5t-4 30v167h911zM163 247q-12 0 -21 -8.5t-9 -21.5t9 -21.5t21 -8.5q13 0 22 8.5t9 21.5t-9 21.5t-22 8.5zM316 123q-8 -26 -14 -48q-5 -19 -10.5 -37t-7.5 -25t-3 -15t1 -14.5
t9.5 -10.5t21.5 -4h37h67h81h80h64h36q23 0 34 12t2 38q-5 13 -9.5 30.5t-9.5 34.5q-5 19 -11 39h-368zM336 498v228q0 11 2.5 23t10 21.5t20.5 15.5t34 6h188q31 0 51.5 -14.5t20.5 -52.5v-227h-327z" />
    <glyph glyph-name="uniE600" unicode="&#xe600;" 
d="M352 864v-320h-320v-640h320h256h384v960h-640zM288 -32h-192v192h192v-192zM288 288h-192v192h192v-192zM608 -32h-192v192h192v-192zM608 288h-192v192h192v-192zM608 608h-192v192h192v-192zM928 96h-64v-64h64v-64h-64v64h-64v-64h-64v64h64v64h-64v64h64v-64h64v64
h64v-64zM928 416h-64v-64h64v-64h-64v64h-64v-64h-64v64h64v64h-64v64h64v-64h64v64h64v-64zM928 736h-64v-64h64v-64h-64v64h-64v-64h-64v64h64v64h-64v64h64v-64h64v64h64v-64zM544 352h-64v64h64v-64zM545 351h-66v66h66v-66zM544 352h-64v64h64v-64zM544 352h-64v64h64
v-64zM544 352h-64v64h64v-64z" />
    <glyph glyph-name="uniE601" unicode="&#xe601;" 
d="M0 896h1024v-1024h-1024v1024z" />
    <glyph glyph-name="uniE602" unicode="&#xe602;" 
d="M856 450h-278v278q0 25 -16.5 32.5t-49.5 7.5t-49.5 -7.5t-16.5 -32.5v-278h-278q-25 0 -32.5 -16.5t-7.5 -49.5t7.5 -49.5t32.5 -16.5h278v-278q0 -25 16.5 -32.5t49.5 -7.5t49.5 7.5t16.5 32.5v278h278q25 0 32.5 16.5t7.5 49.5t-7.5 49.5t-32.5 16.5z" />
    <glyph glyph-name="uniE603" unicode="&#xe603;" 
d="M832 -128h-640q-80 0 -136 56t-56 136v640q0 80 56 136t136 56h64v-96q0 -13 9.5 -22.5t22.5 -9.5h64q13 0 22.5 9.5t9.5 22.5v96h256v-96q0 -13 9.5 -22.5t22.5 -9.5h64q13 0 22.5 9.5t9.5 22.5v96h64q80 0 136 -56t56 -136v-640q0 -80 -56 -136t-136 -56zM896 512
q0 27 -18.5 45.5t-45.5 18.5h-640q-26 0 -45 -19t-19 -45v-448q0 -26 19 -45t45 -19h640q26 0 45 19t19 45v448zM736 128h-64q-13 0 -22.5 9.5t-9.5 22.5v64q0 13 9.5 22.5t22.5 9.5h64q13 0 22.5 -9.5t9.5 -22.5v-64q0 -13 -9.5 -22.5t-22.5 -9.5zM736 320h-64
q-13 0 -22.5 9.5t-9.5 22.5v64q0 13 9.5 22.5t22.5 9.5h64q13 0 22.5 -9.5t9.5 -22.5v-64q0 -13 -9.5 -22.5t-22.5 -9.5zM544 128h-64q-13 0 -22.5 9.5t-9.5 22.5v64q0 13 9.5 22.5t22.5 9.5h64q13 0 22.5 -9.5t9.5 -22.5v-64q0 -13 -9.5 -22.5t-22.5 -9.5zM544 320h-64
q-13 0 -22.5 9.5t-9.5 22.5v64q0 13 9.5 22.5t22.5 9.5h64q13 0 22.5 -9.5t9.5 -22.5v-64q0 -13 -9.5 -22.5t-22.5 -9.5zM352 128h-64q-13 0 -22.5 9.5t-9.5 22.5v64q0 13 9.5 22.5t22.5 9.5h64q13 0 22.5 -9.5t9.5 -22.5v-64q0 -13 -9.5 -22.5t-22.5 -9.5zM352 320h-64
q-13 0 -22.5 9.5t-9.5 22.5v64q0 13 9.5 22.5t22.5 9.5h64q13 0 22.5 -9.5t9.5 -22.5v-64q0 -13 -9.5 -22.5t-22.5 -9.5z" />
    <glyph glyph-name="uniE604" unicode="&#xe604;" 
d="M704 864h-384v-64h-192q-27 0 -45.5 -18.5t-18.5 -45.5v-64h896v64q0 27 -18.5 45.5t-45.5 18.5h-192v64zM128 544v-64v-512q0 -27 18.5 -45.5t45.5 -18.5h640q27 0 45.5 18.5t18.5 45.5v512v64v64h-768v-64zM256 32v448h128v-448h-128zM448 32v448h128v-448h-128z
M768 32h-128v448h128v-448z" />
    <glyph glyph-name="uniE605" unicode="&#xe605;" 
d="M961 640l-449 -512l-448 512h897z" />
    <glyph glyph-name="uniE606" unicode="&#xe606;" 
d="M107 832h810q18 0 30.5 -12.5t12.5 -30.5v-810q0 -18 -12.5 -30.5t-30.5 -12.5h-810q-18 0 -30.5 12.5t-12.5 30.5v810q0 18 12.5 30.5t30.5 12.5zM530 120q26 0 45 19t19 45.5t-19 45t-45 18.5t-45 -18.5t-19 -45t19 -45.5t45 -19zM253 184.5q0 -26.5 18.5 -45.5t45 -19
t45.5 19t19 45.5t-19 45t-45.5 19t-45 -18.5t-18.5 -45.5zM768 629l-150 18q-16 2 -28 -7.5t-13.5 -24.5t7.5 -27.5t25 -13.5l63 -8l-161 -129l-104 96q-10 9 -23.5 9.5t-24.5 -7.5l-128 -100q-12 -10 -13.5 -23.5t1.5 -20t6 -8.5q9 -13 24.5 -14.5t27.5 7.5l103 81l104 -96
q10 -10 25 -10q13 0 23 8l187 150l-5 -55q-1 -16 8 -26t19 -12l10 -2q14 0 25 9.5t12 24.5l13 141q0 -1 -0.5 0.5t-1.5 3.5l-3 5q-1 3 -3 6t-4 6.5t-4.5 6.5t-5 5.5t-5.5 4t-6 2.5zM742.5 249q-26.5 0 -45 -19t-18.5 -45.5t18.5 -45t45 -18.5t45.5 18.5t19 45t-19 45.5
t-45.5 19z" />
    <glyph glyph-name="uniE607" unicode="&#xe607;" 
d="M512 -64q-122 0 -225 60t-163 163t-60 225t60 225t163 163t225 60t225 -60t163 -163t60 -225t-60 -225t-163 -163t-225 -60zM265 247q-9 -10 -9 -23v-64q0 -13 9.5 -22.5t22.5 -9.5h64q13 0 23 9l297 298l-109 109zM759 567l-64 64q-10 9 -23 9t-23 -9l-41 -42l109 -109
l42 41q9 10 9 23t-9 23z" />
    <glyph glyph-name="uniE608" unicode="&#xe608;" 
d="M960 -64h-43q-17 0 -29.5 12.5t-12.5 30.5v682q0 18 12.5 30.5t29.5 12.5h43q18 0 30.5 -12.5t12.5 -30.5v-682q0 -18 -12.5 -30.5t-30.5 -12.5zM789 -64h-725q-18 0 -30.5 12.5t-12.5 30.5v810q0 18 12.5 30.5t30.5 12.5h725q18 0 30.5 -12.5t12.5 -30.5v-810
q0 -18 -12.5 -30.5t-30.5 -12.5zM661 448h-170v171h-128v-171h-171v-128h171v-171h128v171h170v128z" />
    <glyph glyph-name="uniE609" unicode="&#xe609;" 
d="M948 103l-171 -175q-13 -13 -31 -13h-640q-17 0 -29.5 12.5t-12.5 29.5v854q0 17 12.5 29.5t29.5 12.5h812q17 0 29.5 -12.5t12.5 -29.5v-678q0 -17 -12 -30zM576 555v128h-128h-85v-128h85v-470h128v470z" />
    <glyph glyph-name="uniE60A" unicode="&#xe60a;" 
d="M948 103l-171 -175q-13 -13 -31 -13h-640q-17 0 -29.5 12.5t-12.5 29.5v854q0 17 12.5 29.5t29.5 12.5h812q17 0 29.5 -12.5t12.5 -29.5v-678q0 -17 -12 -30zM747 213h-341v128h256q35 0 60 25t25 61v170q0 36 -25 61t-60 25h-384v-128h341v-86h-277q-27 0 -45.5 -18.5
t-18.5 -45.5v-320h469v128z" />
    <glyph glyph-name="uniE60B" unicode="&#xe60b;" 
d="M948 103l-171 -175q-13 -13 -31 -13h-640q-17 0 -29.5 12.5t-12.5 29.5v854q0 17 12.5 29.5t29.5 12.5h812q17 0 29.5 -12.5t12.5 -29.5v-678q0 -17 -12 -30zM747 299q0 48 -43 73v66q43 25 43 74v85q0 36 -25 61t-60 25h-384v-128h341v-86h-171v-128h171v-128h-341v-128
h384q35 0 60 25t25 61v128z" />
    <glyph glyph-name="uniE60C" unicode="&#xe60c;" 
d="M106 853q-17 0 -29.5 -12.5t-12.5 -29.5v-854q0 -17 12.5 -29.5t29.5 -12.5h640q18 0 31 13l171 175q12 13 12 30v678q0 17 -12.5 29.5t-29.5 12.5h-812zM747 341h-43v-256h-128v256h-171h-128v128v214h128v-214h171v214h128v-214h43v-128z" />
    <glyph glyph-name="uniE60D" unicode="&#xe60d;" 
d="M948 103l-171 -175q-13 -13 -31 -13h-640q-17 0 -29.5 12.5t-12.5 29.5v854q0 17 12.5 29.5t29.5 12.5h812q17 0 30 -12q12 -13 12 -30v-678q0 -17 -12 -30zM747 384q0 35 -25 60t-60 25h-256v86h341v128h-469v-278q0 -26 18.5 -45t45.5 -19h277v-128h-341v-128h384
q35 0 60 25t25 61v213z" />
    <glyph glyph-name="uniE60E" unicode="&#xe60e;" 
d="M948 103l-171 -175q-13 -13 -31 -13h-640q-17 0 -29.5 12.5t-12.5 29.5v854q0 17 12.5 29.5t29.5 12.5h812q17 0 30 -12q12 -13 12 -30v-678q0 -17 -12 -30zM747 405q0 27 -19 45.5t-45 18.5h-277v86h298v128h-341q-35 0 -60 -25t-25 -61v-426q0 -36 25 -61t60 -25h299
q35 0 60 25t25 61v234zM406 341h213v-128h-213v128z" />
    <glyph glyph-name="uniE60F" unicode="&#xe60f;" 
d="M948 103l-171 -175q-13 -13 -31 -13h-640q-17 0 -29.5 12.5t-12.5 29.5v854q0 17 12.5 29.5t29.5 12.5h812q17 0 29.5 -12.5t12.5 -29.5v-678q0 -17 -12 -30zM747 597q0 36 -25 61t-60 25h-384v-128h341v-470h128v512z" />
    <glyph glyph-name="uniE610" unicode="&#xe610;" 
d="M948 103l-171 -175q-13 -13 -31 -13h-640q-17 0 -29.5 12.5t-12.5 29.5v854q0 17 12.5 29.5t29.5 12.5h812q17 0 29.5 -12.5t12.5 -29.5v-678q0 -17 -12 -30zM747 341q0 39 -29 64q29 26 29 64v128q0 36 -25 61t-60 25h-299q-35 0 -60 -25t-25 -61v-128q0 -38 29 -64
q-29 -25 -29 -64v-170q0 -36 25 -61t60 -25h299q35 0 60 25t25 61v170zM406 341h213v-128h-213v128zM406 555h213v-86h-213v86z" />
    <glyph glyph-name="uniE611" unicode="&#xe611;" 
d="M948 103l-171 -175q-13 -13 -31 -13h-640q-17 0 -29.5 12.5t-12.5 29.5v854q0 17 12.5 29.5t29.5 12.5h812q17 0 29.5 -12.5t12.5 -29.5v-678q0 -17 -12 -30zM747 597q0 36 -25 61t-60 25h-299q-35 0 -60 -25t-25 -61v-234q0 -27 18.5 -45.5t45.5 -18.5h277v-86h-299
v-128h342q35 0 60 25t25 61v426zM406 555h213v-128h-213v128z" />
    <glyph glyph-name="uniE612" unicode="&#xe612;" 
d="M901 440q-58 12 -83 73q-23 57 13 114l40 60l-57 57l-60 -38q-54 -35 -113 -11q-62 26 -73 78l-15 59h-82l-15 -59q-12 -58 -73 -83q-57 -23 -114 13l-60 40l-57 -57l39 -60q34 -54 10 -113q-26 -62 -78 -73l-59 -15v-82l59 -15q58 -12 83 -73q23 -57 -13 -114l-40 -60
l57 -57l60 39q54 34 113 10q62 -26 73 -78l15 -59h82l15 59q12 58 73 83q57 23 114 -13l60 -40l57 57l-39 60q-34 54 -10 113q26 62 78 74l59 14v82zM512 171q-88 0 -150.5 62.5t-62.5 150.5t62.5 150.5t150.5 62.5t150.5 -62.5t62.5 -150.5t-62.5 -150.5t-150.5 -62.5z" />
    <glyph glyph-name="uniE613" unicode="&#xe613;" 
d="M512 -43q-116 0 -214 57.5t-155.5 155.5t-57.5 214t57.5 214t155.5 155.5t214 57.5t214 -57.5t155.5 -155.5t57.5 -214t-57.5 -214t-155.5 -155.5t-214 -57.5zM512 725q-93 0 -171.5 -45.5t-124 -124t-45.5 -171.5t45.5 -171.5t124 -124t171.5 -45.5t171.5 45.5t124 124
t45.5 171.5t-45.5 171.5t-124 124t-171.5 45.5zM683 341h-128v-128q0 -17 -12.5 -29.5t-30.5 -12.5t-30.5 12.5t-12.5 29.5v128h-128q-17 0 -29.5 12.5t-12.5 30.5t12.5 30.5t29.5 12.5h128v128q0 17 12.5 29.5t30.5 12.5t30.5 -12.5t12.5 -29.5v-128h128q17 0 29.5 -12.5
t12.5 -30.5t-12.5 -30.5t-29.5 -12.5z" />
    <glyph glyph-name="uniE614" unicode="&#xe614;" 
d="M228 856l757 -756q39 -39 39 -94.5t-39 -94.5t-94.5 -39t-94.5 39l-757 756q-39 40 -39 95t39.5 94.5t94.5 39.5t94 -40zM985 856.5q39 -39.5 39 -94.5t-39 -95l-757 -756q-39 -39 -94 -39t-94.5 39t-39.5 94.5t39 94.5l757 756q39 40 94.5 40t94.5 -39.5z" />
    <glyph glyph-name="uniE615" unicode="&#xe615;" 
d="M971 469h-918q-33 0 -43 -22t-10 -66t10 -66t43 -22h918q33 0 43 22t10 66t-10 66t-43 22z" />
    <glyph glyph-name="uniE616" unicode="&#xe616;" 
d="M512 384zM0 384q0 139 68.5 257t186.5 186.5t257 68.5t257 -68.5t186.5 -186.5t68.5 -257t-68.5 -257t-186.5 -186.5t-257 -68.5t-257 68.5t-186.5 186.5t-68.5 257z" />
    <glyph glyph-name="uniE617" unicode="&#xe617;" horiz-adv-x="1025" 
d="M811 555l-299 -342l-299 342h598z" />
    <glyph glyph-name="uniE618" unicode="&#xe618;" horiz-adv-x="1171" 
d="M951 896l219 -228l-219 -211v439zM146 457l-146 -146v292q0 61 43 104t103 43h805v-147h-805v-146zM219 -128l-219 228l219 211v-439zM1024 18h-805v147h805v146l146 146v-292q0 -61 -42.5 -104t-103.5 -43z" />
    <glyph glyph-name="uniE619" unicode="&#xe619;" horiz-adv-x="1465" 
d="M1464 701l-844 -829h-58l-562 553l199 195l392 -386l674 662z" />
    <glyph glyph-name="uniE61A" unicode="&#xe61a;" 
d="M512 -43q-116 0 -214 57t-155.5 155.5t-57.5 214.5t57.5 214t155.5 155.5t214 57.5t214.5 -57.5t155.5 -155.5t57 -214t-57 -214.5t-155.5 -155.5t-214.5 -57zM512 640q-106 0 -181 -75t-75 -181t75 -181t181 -75t181 75t75 181t-75 181t-181 75z" />
    <glyph glyph-name="uniE61B" unicode="&#xe61b;" horiz-adv-x="1199" 
d="M1178 775l-402 -403q-21 -21 -50.5 -21t-50.5 21l-201 201l-353 -352q-20 -21 -49.5 -21t-50.5 21t-21 50.5t21 50.5l402 402q21 21 50.5 21t50.5 -21l201 -201l353 352q20 21 49.5 21t50.5 -21t21 -50.5t-21 -49.5zM208 86q44 0 75.5 -31.5t31.5 -75.5t-31.5 -75.5
t-75.5 -31.5t-75.5 31.5t-31.5 75.5t31.5 75.5t75.5 31.5zM635 86q44 0 75.5 -31.5t31.5 -75.5t-31.5 -75.5t-75.5 -31.5t-75.5 31.5t-31.5 75.5t31.5 75.5t75.5 31.5zM1062 86q44 0 75.5 -31.5t31.5 -75.5t-31.5 -75.5t-75.5 -31.5t-75.5 31.5t-31.5 75.5t31.5 75.5
t75.5 31.5z" />
  </font>
</defs>
</svg>
