<?xml version="1.0" standalone="no"?>
<!DOCTYPE svg PUBLIC "-//W3C//DTD SVG 1.1//EN" "http://www.w3.org/Graphics/SVG/1.1/DTD/svg11.dtd" >
<svg xmlns="http://www.w3.org/2000/svg">
<metadata>
Created by FontForge 20120731 at Fri Aug 19 17:15:48 2016
 By admin
</metadata>
<defs>
<font id="iconfont" horiz-adv-x="1024" >
  <font-face 
    font-family="iconfont"
    font-weight="500"
    font-stretch="normal"
    units-per-em="1024"
    panose-1="2 0 6 3 0 0 0 0 0 0"
    ascent="896"
    descent="-128"
    x-height="792"
    bbox="0 -128 1795 896"
    underline-thickness="50"
    underline-position="-100"
    unicode-range="U+0078-E613"
  />
<missing-glyph horiz-adv-x="374" 
d="M34 0v682h272v-682h-272zM68 34h204v614h-204v-614z" />
    <glyph glyph-name=".notdef" horiz-adv-x="374" 
d="M34 0v682h272v-682h-272zM68 34h204v614h-204v-614z" />
    <glyph glyph-name=".null" horiz-adv-x="0" 
 />
    <glyph glyph-name="nonmarkingreturn" horiz-adv-x="341" 
 />
    <glyph glyph-name="x" unicode="x" horiz-adv-x="1001" 
d="M281 543q-27 -1 -53 -1h-83q-18 0 -36.5 -6t-32.5 -18.5t-23 -32t-9 -45.5v-76h912v41q0 16 -0.5 30t-0.5 18q0 13 -5 29t-17 29.5t-31.5 22.5t-49.5 9h-133v-97h-438v97zM955 310v-52q0 -23 0.5 -52t0.5 -58t-10.5 -47.5t-26 -30t-33 -16t-31.5 -4.5q-14 -1 -29.5 -0.5
t-29.5 0.5h-32l-45 128h-439l-44 -128h-29h-34q-20 0 -45 1q-25 0 -41 9.5t-25.5 23t-13.5 29.5t-4 30v167h911zM163 247q-12 0 -21 -8.5t-9 -21.5t9 -21.5t21 -8.5q13 0 22 8.5t9 21.5t-9 21.5t-22 8.5zM316 123q-8 -26 -14 -48q-5 -19 -10.5 -37t-7.5 -25t-3 -15t1 -14.5
t9.5 -10.5t21.5 -4h37h67h81h80h64h36q23 0 34 12t2 38q-5 13 -9.5 30.5t-9.5 34.5q-5 19 -11 39h-368zM336 498v228q0 11 2.5 23t10 21.5t20.5 15.5t34 6h188q31 0 51.5 -14.5t20.5 -52.5v-227h-327z" />
    <glyph glyph-name="uniE600" unicode="&#xe600;" 
d="M49 896h926q20 0 34.5 -14.5t14.5 -34.5v-926q0 -20 -14.5 -34.5t-34.5 -14.5h-926q-20 0 -34.5 14.5t-14.5 34.5v926q0 20 14.5 34.5t34.5 14.5zM512 67q30 0 51.5 21.5t21.5 51.5t-21.5 51.5t-51.5 21.5t-51.5 -21.5t-21.5 -51.5t21.5 -51.5t51.5 -21.5zM195 140
q0 -30 21.5 -51.5t52 -21.5t52 21.5t21.5 51.5t-21.5 51.5t-52.5 21.5q-30 0 -51.5 -21.5t-21.5 -51.5zM784 648l-172 21q-17 2 -31 -9t-16 -28.5t8.5 -31t28.5 -15.5l72 -9l-185 -147l-118 109q-11 11 -27 11.5t-28 -8.5l-146 -115q-14 -11 -15.5 -26.5t2 -22.5t6.5 -11
q11 -13 28 -15.5t31 8.5l118 93l119 -110q12 -12 29 -12q14 0 26 10l214 171l-6 -63q-1 -18 9.5 -29.5t21.5 -14.5l11 -2q17 0 29 11t14 28l14 161q-18 42 -37 46zM755 213q-30 0 -51.5 -21.5t-21.5 -51.5t21.5 -51.5t52 -21.5t52 21.5t21.5 51.5t-22 51.5t-52 21.5z" />
    <glyph glyph-name="uniE601" unicode="&#xe601;" horiz-adv-x="1122" 
d="M1073 -128h-49q-20 0 -34.5 14.5t-14.5 34.5v780q0 20 14.5 34.5t34.5 14.5h49q20 0 34.5 -14.5t14.5 -34.5v-780q0 -20 -14.5 -34.5t-34.5 -14.5zM878 -128h-829q-20 0 -34.5 14.5t-14.5 34.5v926q0 20 14.5 34.5t34.5 14.5h829q20 0 34 -14.5t14 -34.5v-926
q0 -20 -14 -34.5t-34 -14.5zM731 457h-195v195h-146v-195h-195v-146h195v-195h146v195h195v146z" />
    <glyph glyph-name="uniE602" unicode="&#xe602;" 
d="M988 78l-187 -192q-14 -14 -34 -14h-698q-19 0 -32.5 13.5t-13.5 33.5v930q0 20 13.5 33.5t32.5 13.5h886q19 0 32.5 -13.5t13.5 -33.5v-739q0 -19 -13 -32zM582 570v140h-140h-93v-140h93v-512h140v512z" />
    <glyph glyph-name="uniE603" unicode="&#xe603;" 
d="M988 78l-187 -192q-14 -14 -34 -14h-698q-19 0 -32.5 13.5t-13.5 33.5v930q0 20 13.5 33.5t32.5 13.5h886q19 0 32.5 -13.5t13.5 -33.5v-739q0 -19 -13 -32zM768 198h-372v139h279q39 0 66 27.5t27 66.5v186q0 38 -27 65.5t-66 27.5h-419v-140h373v-93h-303
q-29 0 -49.5 -20.5t-20.5 -49.5v-349h512v140z" />
    <glyph glyph-name="uniE604" unicode="&#xe604;" 
d="M988 78l-187 -192q-14 -14 -34 -14h-698q-19 0 -32.5 13.5t-13.5 33.5v930q0 20 13.5 33.5t32.5 13.5h886q19 0 32.5 -13.5t13.5 -33.5v-739q0 -19 -13 -32zM768 291q0 25 -12.5 46.5t-33.5 33.5v72q21 13 33.5 34t12.5 47v93q0 38 -27 65.5t-66 27.5h-419v-140h373v-93
h-187v-140h187v-139h-373v-140h419q39 0 66 27.5t27 65.5v140z" />
    <glyph glyph-name="uniE605" unicode="&#xe605;" 
d="M69 896q-19 0 -32.5 -13.5t-13.5 -33.5v-930q0 -20 13.5 -33.5t32.5 -13.5h698q20 0 33 14l188 192q13 13 13 32v739q0 20 -13.5 33.5t-33.5 13.5h-885zM768 337h-46v-279h-140v279h-186h-140v140v233h140v-233h186v233h140v-233h46v-140z" />
    <glyph glyph-name="uniE606" unicode="&#xe606;" 
d="M988 78l-187 -192q-14 -14 -34 -14h-698q-19 0 -32.5 13.5t-13.5 33.5v930q0 20 13.5 33.5t32.5 13.5h886q19 0 32.5 -13.5t13.5 -33.5v-739q0 -19 -13 -32zM768 384q0 39 -27 66t-66 27h-279v93h372v140h-512v-303q0 -29 20.5 -49.5t49.5 -20.5h303v-139h-373v-140h419
q39 0 66 27.5t27 65.5v233z" />
    <glyph glyph-name="uniE607" unicode="&#xe607;" 
d="M988 78l-187 -192q-14 -14 -34 -14h-698q-19 0 -32.5 13.5t-13.5 33.5v930q0 20 13.5 33.5t32.5 13.5h886q19 0 32.5 -13.5t13.5 -33.5v-739q0 -19 -13 -32zM768 407q0 29 -20.5 49.5t-48.5 20.5h-303v93h326v140h-373q-38 0 -65.5 -27.5t-27.5 -65.5v-466
q0 -38 27.5 -65.5t65.5 -27.5h326q39 0 66 27.5t27 65.5v256zM396 337h233v-139h-233v139z" />
    <glyph glyph-name="uniE608" unicode="&#xe608;" 
d="M988 78l-187 -192q-14 -14 -34 -14h-698q-19 0 -32.5 13.5t-13.5 33.5v930q0 20 13.5 33.5t32.5 13.5h886q19 0 32.5 -13.5t13.5 -33.5v-739q0 -19 -13 -32zM768 617q0 38 -27 65.5t-66 27.5h-419v-140h373v-512h139v559z" />
    <glyph glyph-name="uniE609" unicode="&#xe609;" 
d="M988 78l-187 -192q-14 -14 -34 -14h-698q-19 0 -32.5 13.5t-13.5 33.5v930q0 20 13.5 33.5t32.5 13.5h886q19 0 32.5 -13.5t13.5 -33.5v-739q0 -19 -13 -32zM768 337q0 42 -32 70q32 28 32 70v140q0 38 -27 65.5t-66 27.5h-326q-38 0 -65.5 -27.5t-27.5 -65.5v-140
q0 -42 32 -70q-32 -28 -32 -70v-186q0 -38 27.5 -65.5t65.5 -27.5h326q39 0 66 27.5t27 65.5v186zM396 337h233v-139h-233v139zM396 570h233v-93h-233v93z" />
    <glyph glyph-name="uniE60A" unicode="&#xe60a;" 
d="M988 78l-187 -192q-14 -14 -34 -14h-698q-19 0 -32.5 13.5t-13.5 33.5v930q0 20 13.5 33.5t32.5 13.5h886q19 0 32.5 -13.5t13.5 -33.5v-739q0 -19 -13 -32zM768 617q0 38 -27 65.5t-66 27.5h-326q-38 0 -65.5 -27.5t-27.5 -65.5v-256q0 -29 20.5 -49.5t49.5 -20.5h303
v-93h-326v-140h372q39 0 66 27.5t27 65.5v466zM396 570h233v-139h-233v139z" />
    <glyph glyph-name="uniE60B" unicode="&#xe60b;" 
d="M956 448q-66 14 -94 84q-13 32 -9 66t23 64l46 68l-65 65l-68 -43q-29 -19 -63.5 -22t-66.5 10q-71 29 -83 88l-18 68h-92l-18 -68q-14 -65 -83 -94q-33 -13 -66.5 -8.5t-63.5 23.5l-68 45l-66 -65l44 -68q39 -62 11 -129q-29 -71 -88 -84l-68 -17v-93l68 -17
q66 -15 94 -84q13 -33 9 -66.5t-23 -63.5l-46 -68l65 -66l68 44q29 19 63.5 22t66.5 -10q71 -30 83 -89l18 -67h92l18 67q14 66 83 95q33 12 66.5 8t63.5 -23l68 -45l66 65l-44 68q-19 29 -22 63t11 66q29 71 88 84l68 17v93zM512 141q-101 0 -172.5 71.5t-71.5 172
t71.5 172t172.5 71.5t172.5 -71.5t71.5 -172t-71.5 -172t-172.5 -71.5z" />
    <glyph glyph-name="uniE60C" unicode="&#xe60c;" 
d="M512 -128q-139 0 -257 68.5t-186.5 186.5t-68.5 257t68.5 257t186.5 186.5t257 68.5t257 -68.5t186.5 -186.5t68.5 -257t-68.5 -257t-186.5 -186.5t-257 -68.5zM512 794q-111 0 -205.5 -55t-149.5 -149.5t-55 -205.5t55 -205.5t149.5 -149.5t205.5 -55t205.5 55
t149.5 149.5t55 205.5t-55 205.5t-149.5 149.5t-205.5 55zM717 333h-154v-154q0 -21 -15 -36t-36 -15t-36 15t-15 36v154h-154q-21 0 -36 15t-15 36t15 36t36 15h154v154q0 21 15 36t36 15t36 -15t15 -36v-154h154q21 0 36 -15t15 -36t-15 -36t-36 -15z" />
    <glyph glyph-name="uniE60D" unicode="&#xe60d;" 
d="M341 896v-341h-341v-683h341h273h410v1024h-683zM273 -60h-205v205h205v-205zM273 282h-205v204h205v-204zM614 -60h-204v205h204v-205zM614 282h-204v204h204v-204zM614 623h-204v205h204v-205zM956 77h-69v-68h69v-69h-69v69h-68v-69h-68v69h68v68h-68v68h68v-68h68v68
h69v-68zM956 418h-69v-68h69v-68h-69v68h-68v-68h-68v68h68v68h-68v68h68v-68h68v68h69v-68zM956 759h-69v-68h69v-68h-69v68h-68v-68h-68v68h68v68h-68v69h68v-69h68v69h69v-69zM546 691h-68v68h68v-68zM205 348h-71v70h71v-70zM546 350h-68v68h68v-68zM205 9h-68v68h68
v-68zM546 9h-68v68h68v-68z" />
    <glyph glyph-name="uniE60E" unicode="&#xe60e;" 
d="M0 896h1024v-1024h-1024v1024z" />
    <glyph glyph-name="uniE60F" unicode="&#xe60f;" 
d="M971 472h-371v371q0 33 -22 43t-66 10t-66 -10t-22 -43v-371h-371q-33 0 -43 -22t-10 -66t10 -66t43 -22h371v-371q0 -33 22 -43t66 -10t66 10t22 43v371h371q33 0 43 22t10 66t-10 66t-43 22z" />
    <glyph glyph-name="uniE610" unicode="&#xe610;" 
d="M832 -128h-640q-80 0 -136 56t-56 136v640q0 80 56 136t136 56h64v-96q0 -13 9.5 -22.5t22.5 -9.5h64q13 0 22.5 9.5t9.5 22.5v96h256v-96q0 -13 9.5 -22.5t22.5 -9.5h64q13 0 22.5 9.5t9.5 22.5v96h64q80 0 136 -56t56 -136v-640q0 -80 -56 -136t-136 -56zM896 512
q0 27 -18.5 45.5t-45.5 18.5h-640q-26 0 -45 -19t-19 -45v-448q0 -26 19 -45t45 -19h640q26 0 45 19t19 45v448zM736 128h-64q-13 0 -22.5 9.5t-9.5 22.5v64q0 13 9.5 22.5t22.5 9.5h64q13 0 22.5 -9.5t9.5 -22.5v-64q0 -13 -9.5 -22.5t-22.5 -9.5zM736 320h-64
q-13 0 -22.5 9.5t-9.5 22.5v64q0 13 9.5 22.5t22.5 9.5h64q13 0 22.5 -9.5t9.5 -22.5v-64q0 -13 -9.5 -22.5t-22.5 -9.5zM544 128h-64q-13 0 -22.5 9.5t-9.5 22.5v64q0 13 9.5 22.5t22.5 9.5h64q13 0 22.5 -9.5t9.5 -22.5v-64q0 -13 -9.5 -22.5t-22.5 -9.5zM544 320h-64
q-13 0 -22.5 9.5t-9.5 22.5v64q0 13 9.5 22.5t22.5 9.5h64q13 0 22.5 -9.5t9.5 -22.5v-64q0 -13 -9.5 -22.5t-22.5 -9.5zM352 128h-64q-13 0 -22.5 9.5t-9.5 22.5v64q0 13 9.5 22.5t22.5 9.5h64q13 0 22.5 -9.5t9.5 -22.5v-64q0 -13 -9.5 -22.5t-22.5 -9.5zM352 320h-64
q-13 0 -22.5 9.5t-9.5 22.5v64q0 13 9.5 22.5t22.5 9.5h64q13 0 22.5 -9.5t9.5 -22.5v-64q0 -13 -9.5 -22.5t-22.5 -9.5z" />
    <glyph glyph-name="uniE611" unicode="&#xe611;" 
d="M717 896h-410v-68h-205q-28 0 -48 -20t-20 -49v-68h956v68q0 29 -20 49t-48 20h-205v68zM102 555v-69v-546q0 -28 20 -48t49 -20h682q29 0 49 20t20 48v546v69v68h-820v-68zM239 9v477h136v-477h-136zM444 9v477h136v-477h-136zM785 9h-136v477h136v-477z" />
    <glyph glyph-name="uniE612" unicode="&#xe612;" horiz-adv-x="1795" 
d="M1795 896l-898 -1024l-897 1024h1795z" />
    <glyph glyph-name="uniE613" unicode="&#xe613;" 
d="M512 -128q-139 0 -257 68.5t-186.5 186.5t-68.5 257t68.5 257t186.5 186.5t257 68.5t257 -68.5t186.5 -186.5t68.5 -257t-68.5 -257t-186.5 -186.5t-257 -68.5zM230 227q-11 -11 -11 -26v-73q0 -15 11 -26t26 -11h73q15 0 26 11l340 340l-125 125zM794 593l-73 73
q-11 11 -26 11t-26 -11l-47 -47l125 -125l47 47q11 11 11 26t-11 26z" />
  </font>
</defs>
</svg>
